<svg width="1330" height="290" viewBox="0 0 1330 290" fill="none" xmlns="http://www.w3.org/2000/svg">
<path fill-rule="evenodd" clip-rule="evenodd" d="M182.874 38.8375C183.869 38.5801 185.844 38.1912 187.264 37.9734C188.963 37.7129 191.346 37.616 194.235 37.6902C197.608 37.7766 199.321 37.9655 201.63 38.5047C203.283 38.8907 205.909 39.7352 207.465 40.3809C209.021 41.0266 211.343 42.1793 212.626 42.942C213.908 43.7046 215.922 45.0665 217.102 45.9685C218.282 46.8705 219.887 48.1821 220.669 48.883C221.451 49.5839 223.037 51.2389 224.192 52.5607C225.348 53.8824 227.183 56.2927 228.269 57.9169C229.355 59.5413 230.953 62.2833 231.819 64.01C232.685 65.7367 233.83 68.2793 234.363 69.6602C234.897 71.0408 235.763 73.7386 236.288 75.6553C236.814 77.572 237.456 80.815 237.717 82.8623C237.977 84.9095 238.104 86.6719 237.997 86.7787C237.89 86.8854 237.526 86.5909 237.188 86.1242C236.851 85.6575 235.65 84.1718 234.52 82.8223C233.39 81.4729 231.542 79.5123 230.413 78.4653C229.285 77.4182 227.406 75.8377 226.237 74.953C225.069 74.0685 223.321 72.8677 222.352 72.2849C221.383 71.7021 219.388 70.6636 217.92 69.9774C216.451 69.2909 213.739 68.2246 211.893 67.6078C210.047 66.9907 207.39 66.268 205.988 66.0018C204.565 65.7313 202.189 65.5263 200.607 65.5379C198.726 65.5512 197.015 65.7542 195.51 66.1431C194.264 66.4645 191.97 67.3671 190.412 68.1487C188.854 68.9304 186.369 70.4608 184.89 71.5497C183.41 72.6386 181.18 74.4514 179.934 75.578C178.687 76.7046 176.246 79.156 174.507 81.0257C172.769 82.8954 170.207 85.7815 168.814 87.4397C167.42 89.0978 163.426 93.7415 159.938 97.7587C156.45 101.776 152.321 106.542 150.764 108.35C149.206 110.157 144.435 115.709 140.162 120.687C135.889 125.665 130.458 131.904 128.095 134.552C125.731 137.2 122.597 140.513 121.13 141.915C119.662 143.317 117.191 145.373 115.638 146.484C114.085 147.595 111.221 149.503 109.274 150.725C107.327 151.947 103.821 153.917 101.483 155.103C99.1442 156.288 96.0219 157.655 94.5442 158.14C93.0664 158.626 91.029 159.174 90.0166 159.359C89.0041 159.543 86.7739 159.7 85.0605 159.706C83.3472 159.712 81.1807 159.557 80.2461 159.36C79.3115 159.164 77.7256 158.755 76.7219 158.452C75.7182 158.149 73.7429 157.328 72.3323 156.627C70.9216 155.927 68.8755 154.694 67.7851 153.886C66.6948 153.079 64.6532 151.251 63.2485 149.824C61.8435 148.397 59.8322 146.034 58.7787 144.572C57.7252 143.111 55.9929 140.175 54.9286 138.048C53.8643 135.92 52.5933 132.925 52.1039 131.392C51.6145 129.859 50.9629 127.458 50.6556 126.056C50.3486 124.654 50.0946 123.093 50.0912 122.587C50.0878 122.08 50.1968 121.666 50.3336 121.666C50.4701 121.666 50.7505 121.869 50.9564 122.117C51.1623 122.365 52.8026 123.675 54.6018 125.028C56.5173 126.469 59.2228 128.164 61.1299 129.118C63.0814 130.095 65.5218 131.048 67.2187 131.497C69.7299 132.161 70.5962 132.247 74.8652 132.263C78.5939 132.276 80.1906 132.161 81.9453 131.755C83.1914 131.467 85.3319 130.783 86.7017 130.237C88.0716 129.69 90.1743 128.653 91.3746 127.931C92.5748 127.21 94.5762 125.858 95.8223 124.928C97.0684 123.997 100.138 121.194 102.643 118.699C105.149 116.203 109.362 111.549 112.004 108.356C114.647 105.163 118.852 100.001 121.348 96.8859C123.844 93.7707 127.447 89.1828 129.355 86.6906C131.263 84.1984 134.248 80.3222 135.988 78.0773C137.728 75.832 140.48 72.3274 142.103 70.2892C143.727 68.2507 146.516 64.8627 148.302 62.7599C150.088 60.6572 153.265 57.2474 155.362 55.1828C157.459 53.118 160.341 50.5522 161.767 49.4808C163.192 48.4095 165.505 46.8065 166.907 45.919C168.308 45.0314 171.112 43.5016 173.137 42.5191C175.162 41.5367 177.774 40.4115 178.942 40.019C180.111 39.6268 181.88 39.0949 182.874 38.8375ZM87.4678 39.5659C88.636 39.3937 89.9741 39.2085 90.4414 39.1541C90.9087 39.1 93.0752 39.0386 95.2559 39.0179C97.4365 38.9969 100.75 39.1037 102.619 39.2549C104.488 39.4062 107.39 39.7384 109.067 39.993C110.744 40.2476 112.169 40.5427 112.235 40.6486C112.3 40.7548 109.909 41.1354 106.92 41.4951C103.932 41.8545 99.6384 42.5112 97.3799 42.9538C95.1213 43.3968 92.4114 44.0116 91.3578 44.32C90.304 44.6281 88.7427 45.1422 87.8878 45.4622C87.0328 45.7819 85.5372 46.4426 84.5641 46.9303C83.591 47.418 82.0209 48.3659 81.0747 49.0368C80.1286 49.7077 79.0076 50.7113 78.5837 51.2673C78.1597 51.8229 77.5667 52.8204 77.2657 53.4833C76.9646 54.1463 76.7157 55.2259 76.7123 55.8823C76.7077 56.7767 76.8434 57.1494 77.2538 57.3692C77.5551 57.5303 78.7341 57.6606 79.8734 57.6586C81.013 57.6566 83.156 57.4034 84.6357 57.0959C86.1155 56.7883 87.4887 56.5351 87.6875 56.5332C87.9597 56.5303 87.9365 56.7467 87.5927 57.4114C87.3417 57.8965 86.6173 58.8565 85.9829 59.545C85.3486 60.2332 83.9161 61.4074 82.8 62.1539C81.6836 62.9004 79.633 63.9905 78.2427 64.5764C76.8525 65.1621 74.3767 65.9508 72.7412 66.3294C71.1057 66.7078 68.3657 67.0958 66.6523 67.1915C64.645 67.3036 62.9571 67.2442 61.9059 67.0244C60.9965 66.8344 59.9107 66.377 59.4519 65.9913C58.9113 65.5362 58.5646 64.9165 58.4409 64.1839C58.3372 63.5705 58.4006 62.33 58.5816 61.4275C58.7629 60.5249 59.4094 58.7447 60.0183 57.4714C60.6272 56.1981 61.8702 54.2188 62.7807 53.073C63.6912 51.9274 65.1259 50.3803 65.969 49.6352C66.8121 48.8901 68.6005 47.5406 69.9434 46.6363C71.2864 45.7318 73.8352 44.2843 75.6075 43.4194C77.3798 42.5545 80.2956 41.4042 82.0869 40.863C83.8782 40.3218 86.2996 39.7381 87.4678 39.5659ZM114.507 49.5737C115.438 49.3069 116.84 48.9855 117.622 48.8598C118.405 48.7337 120.638 48.6799 122.585 48.7403C125.168 48.8204 126.891 49.0458 128.957 49.5743C130.576 49.9883 133.003 50.9014 134.621 51.7051C136.179 52.4785 137.931 53.5765 138.515 54.1446C139.099 54.713 139.577 55.2811 139.577 55.4069C139.577 55.5329 139.099 55.7886 138.515 55.9755C137.931 56.1622 136.115 56.8812 134.479 57.5731C132.844 58.2652 130.282 59.6458 128.787 60.6413C127.291 61.6368 124.989 63.5084 123.67 64.8004C122.351 66.0924 120.002 68.6152 118.451 70.4064C116.899 72.1977 112.644 77.1679 108.995 81.4513C105.346 85.7348 100.304 91.5334 97.7908 94.3371C95.2774 97.1408 92.0996 100.495 90.7289 101.792C89.3582 103.088 87.3709 104.848 86.3129 105.703C85.2548 106.558 83.4168 107.811 82.2288 108.488C81.0405 109.165 79.0252 110.011 77.7499 110.368C75.9825 110.861 74.725 111.012 72.458 111.001C70.6764 110.993 68.7463 110.8 67.6435 110.521C66.6311 110.264 64.6558 109.489 63.2539 108.799C61.852 108.108 59.8591 106.843 58.8255 105.987C57.7915 105.131 56.3571 103.708 55.6372 102.825C54.9175 101.941 53.8618 100.383 53.2908 99.3625C52.7202 98.3419 51.9017 96.475 51.4726 95.2139C51.0433 93.9528 50.4857 91.6467 50.2336 90.089C49.9088 88.0828 49.7998 85.8942 49.8592 82.5842L49.9434 77.9113L51.1937 79.7521C51.8813 80.7646 52.9643 82.2217 53.6001 82.9903C54.2359 83.7589 55.5015 84.9362 56.4126 85.6068C57.3539 86.3001 58.8821 87.0809 59.9532 87.4162C61.3185 87.8435 62.5949 88.0064 64.5841 88.0069C66.4762 88.0075 67.9874 87.8274 69.443 87.4281C70.6047 87.1092 72.2818 86.5272 73.1694 86.1347C74.057 85.7422 75.5662 84.9517 76.5234 84.3785C77.4806 83.805 79.3469 82.4981 80.6709 81.474C81.9949 80.4502 84.5502 78.1464 86.3494 76.3545C88.1489 74.5627 90.7614 71.8179 92.1551 70.2549C93.549 68.6916 96.4722 65.3144 98.6512 62.75C100.83 60.1853 103.379 57.3363 104.315 56.4187C105.252 55.5009 106.846 54.0829 107.858 53.2673C108.871 52.4519 110.4 51.3964 111.257 50.9218C112.114 50.4471 113.576 49.8405 114.507 49.5737ZM198.2 88.7076C199.368 88.3185 201.535 87.7376 203.015 87.417C205.265 86.9291 206.423 86.8526 210.095 86.9486C213.786 87.0452 214.885 87.182 217.002 87.8076C218.387 88.2171 220.396 88.9248 221.467 89.3807C222.539 89.8367 224.337 90.8044 225.464 91.5314C226.59 92.2587 228.609 93.9519 229.951 95.2943C231.292 96.637 233.002 98.6913 233.751 99.8595C234.499 101.028 235.589 103.012 236.171 104.27C236.754 105.527 237.624 107.885 238.104 109.509C238.584 111.133 239.233 113.972 239.545 115.818C239.858 117.664 240.114 119.48 240.114 119.853C240.114 120.228 239.995 120.533 239.85 120.533C239.704 120.533 238.972 119.752 238.221 118.797C237.471 117.842 236.029 116.373 235.017 115.532C234.004 114.691 232.029 113.437 230.627 112.744C229.225 112.052 226.995 111.228 225.671 110.914C223.899 110.493 222.286 110.341 219.557 110.34C216.817 110.339 215.292 110.481 213.714 110.884C212.54 111.185 210.512 111.965 209.208 112.617C207.905 113.27 205.627 114.646 204.147 115.674C202.668 116.703 199.928 118.818 198.059 120.374C196.189 121.93 191.336 126.522 187.275 130.577C182.529 135.315 177.065 141.19 171.987 147.013C167.641 151.997 162.549 157.796 160.67 159.899C158.791 162.001 155.22 166.072 152.734 168.944C150.249 171.816 147.011 175.576 145.539 177.299C144.068 179.021 140.691 182.604 138.035 185.261C135.378 187.917 132.014 191.008 130.557 192.129C129.101 193.249 126.795 194.856 125.432 195.699C124.07 196.542 121.948 197.738 120.717 198.356C119.486 198.975 117.137 199.939 115.498 200.499C113.858 201.059 111.01 201.775 109.168 202.09C107.059 202.45 104.546 202.662 102.379 202.661C100.486 202.66 97.7268 202.475 96.2471 202.25C94.7673 202.026 92.4097 201.514 91.0078 201.113C89.606 200.713 86.8022 199.562 84.7773 198.556C82.7524 197.55 80.2036 196.057 79.1133 195.239C78.0229 194.421 76.1728 192.793 75.002 191.622C73.8313 190.451 72.2201 188.616 71.422 187.543C70.624 186.47 69.368 184.579 68.6311 183.34C67.8942 182.101 66.8135 179.918 66.2298 178.489C65.6461 177.06 64.888 174.81 64.5447 173.488C64.2018 172.166 63.8466 170.002 63.756 168.678L63.5909 166.271L66.573 169.117C68.2134 170.682 70.6863 172.824 72.0686 173.876C73.4727 174.945 76.0819 176.524 77.9805 177.455C79.8496 178.371 82.3347 179.38 83.5029 179.697C84.6711 180.014 86.8059 180.406 88.2466 180.567C90.0169 180.766 91.6731 180.77 93.3553 180.579C94.7243 180.424 96.4765 180.175 97.2493 180.026C98.0222 179.877 99.782 179.426 101.161 179.024C102.539 178.622 105.029 177.685 106.695 176.942C108.36 176.199 111.056 174.796 112.685 173.825C114.314 172.854 117.135 170.948 118.955 169.59C120.774 168.232 123.642 165.986 125.327 164.6C127.012 163.213 130.751 159.708 133.636 156.811C136.521 153.914 140.356 149.824 142.158 147.721C143.961 145.618 146.897 142.113 148.683 139.933C150.469 137.752 153.588 133.801 155.616 131.153C157.642 128.506 160.635 124.555 162.265 122.374C163.896 120.194 166.562 116.561 168.191 114.303C169.82 112.044 172.118 108.986 173.297 107.506C174.476 106.026 176.511 103.686 177.819 102.305C179.128 100.924 181.413 98.7783 182.898 97.5364C184.383 96.2946 186.668 94.5719 187.976 93.7084C189.284 92.8446 191.642 91.5255 193.215 90.7767C194.789 90.0279 197.032 89.0967 198.2 88.7076ZM122.045 220.447C123.355 219.466 127.991 215.159 132.348 210.875C138.65 204.68 140.288 203.207 140.361 203.672C140.411 203.993 139.893 205.778 139.208 207.639C138.524 209.499 137.29 212.549 136.466 214.417C135.642 216.285 133.886 219.98 132.563 222.628C131.241 225.276 129.201 229.163 128.029 231.266C126.857 233.369 125.013 236.491 123.932 238.204C122.85 239.918 121.09 242.547 120.02 244.047C118.951 245.547 117.199 247.68 116.128 248.786C114.805 250.151 113.655 251.037 112.544 251.545C111.14 252.188 110.638 252.275 109.001 252.158C107.663 252.062 106.68 251.796 105.706 251.266C104.943 250.85 103.426 249.847 102.336 249.036C101.246 248.225 99.0123 246.221 97.3731 244.582C95.7336 242.943 93.2729 240.201 91.9041 238.487C90.5357 236.774 88.4788 233.97 87.3332 232.257C86.1877 230.544 84.4856 227.74 83.5505 226.027C82.6156 224.313 81.4052 221.828 80.8606 220.504C80.3158 219.18 79.7768 217.595 79.6627 216.982L79.4554 215.867L82.1164 218.224C83.58 219.52 85.6694 221.212 86.7598 221.984C87.8501 222.756 89.485 223.765 90.393 224.227C91.3006 224.688 93.3397 225.497 94.9242 226.024C96.5085 226.551 98.8588 227.124 100.147 227.297C101.466 227.475 103.569 227.532 104.962 227.428C106.321 227.326 108.393 227.006 109.564 226.716C110.737 226.426 112.607 225.813 113.721 225.353C114.835 224.894 116.628 224.003 117.706 223.374C118.784 222.744 120.736 221.427 122.045 220.447Z" fill="#FAFAFA"/>
<path d="M218.308 127.316C216.984 127.597 214.881 128.165 213.635 128.578C212.389 128.991 209.967 130.029 208.254 130.886C206.541 131.743 203.482 133.605 201.457 135.023C199.432 136.442 196.565 138.57 195.085 139.752C193.605 140.934 190.993 143.11 189.279 144.589C187.566 146.068 183.615 149.588 180.5 152.412C177.385 155.237 173.293 159.192 171.408 161.201C169.523 163.211 166.553 166.448 164.808 168.395C163.063 170.342 161.005 172.869 160.235 174.012C159.465 175.154 158.835 176.29 158.835 176.537C158.835 176.783 158.894 176.932 158.966 176.867C159.037 176.802 160.981 174.898 163.284 172.637C165.588 170.375 168.938 167.311 170.729 165.828C172.521 164.345 175.388 162.04 177.102 160.706C178.815 159.372 181.619 157.321 183.332 156.15C185.045 154.977 187.785 153.218 189.421 152.24C191.056 151.261 194.051 149.665 196.076 148.693C198.101 147.72 200.801 146.598 202.077 146.2C203.353 145.801 205.37 145.354 206.56 145.207C207.892 145.041 209.429 145.038 210.555 145.197C211.562 145.34 212.904 145.721 213.538 146.044C214.171 146.368 215.241 147.199 215.915 147.893C216.62 148.618 217.38 149.793 217.703 150.658C218.013 151.486 218.467 153.133 218.712 154.32C218.957 155.506 219.157 157.67 219.157 159.129C219.157 160.588 218.953 162.982 218.704 164.451C218.454 165.919 217.883 168.267 217.435 169.669C216.988 171.071 216.013 173.397 215.269 174.838C214.526 176.279 213.108 178.602 212.118 180.001C211.128 181.399 209.037 183.772 207.473 185.274C205.908 186.776 203.563 188.699 202.26 189.548C200.959 190.396 198.971 191.514 197.843 192.032C196.716 192.549 194.532 193.374 192.99 193.865C191.253 194.418 189.009 194.877 187.085 195.073C184.784 195.307 183.13 195.305 180.684 195.066C178.869 194.888 176.381 194.479 175.155 194.158C173.928 193.837 172.14 193.218 171.181 192.783C170.223 192.348 168.942 191.558 168.336 191.026C167.73 190.495 166.873 189.563 166.433 188.955C165.992 188.348 165.632 187.555 165.632 187.193C165.632 186.76 165.899 186.396 166.411 186.133C166.839 185.912 167.845 185.538 168.647 185.3C169.448 185.063 171.933 184.541 174.169 184.141C176.405 183.74 180.783 183.026 183.898 182.553C187.014 182.081 190.773 181.381 192.253 180.999C193.733 180.616 195.644 180.034 196.501 179.706C197.358 179.377 199.014 178.61 200.183 178.002C201.351 177.394 203.454 176.045 204.855 175.005C206.257 173.964 208.518 171.978 209.878 170.591C211.239 169.204 213.043 167.028 213.886 165.754C214.73 164.481 215.581 162.896 215.777 162.233C215.972 161.57 216.052 160.947 215.953 160.848C215.854 160.749 214.213 162.172 212.307 164.011C210.4 165.849 208.071 167.923 207.131 168.621C206.191 169.318 203.383 170.894 200.891 172.123C198.398 173.352 195.199 174.73 193.781 175.185C192.362 175.64 189.941 176.286 188.4 176.621C186.079 177.124 184.137 177.267 177.102 177.454C170.713 177.623 168.196 177.793 166.955 178.137C166.047 178.388 164.636 178.91 163.819 179.297C163.003 179.683 161.87 180.464 161.301 181.032C160.733 181.6 160.056 182.62 159.798 183.299C159.453 184.2 159.363 185.085 159.463 186.588C159.546 187.846 159.853 189.23 160.253 190.155C160.613 190.986 161.466 192.388 162.148 193.27C162.83 194.152 164.307 195.61 165.43 196.51C166.554 197.409 168.556 198.699 169.88 199.377C171.204 200.054 173.307 200.937 174.553 201.339C175.799 201.74 177.647 202.226 178.659 202.418C179.672 202.61 182.157 202.755 184.182 202.74C186.403 202.725 188.736 202.531 190.063 202.251C191.273 201.996 193.248 201.46 194.453 201.06C195.657 200.659 197.597 199.895 198.764 199.36C199.931 198.825 201.906 197.795 203.154 197.071C204.401 196.346 206.441 194.986 207.687 194.047C208.934 193.109 211.087 191.254 212.472 189.926C213.858 188.598 216.069 186.236 217.385 184.679C218.701 183.121 220.773 180.351 221.988 178.523C223.204 176.695 224.837 173.955 225.617 172.434C226.397 170.913 227.51 168.522 228.091 167.12C228.672 165.718 229.516 163.488 229.967 162.164C230.418 160.84 231.215 158.1 231.739 156.075C232.263 154.05 232.893 151.183 233.14 149.703C233.387 148.224 233.723 145.304 233.889 143.216C234.053 141.128 234.111 138.834 234.017 138.118C233.923 137.403 233.712 136.117 233.549 135.26C233.386 134.403 232.996 133.193 232.684 132.57C232.372 131.946 231.696 130.918 231.183 130.285C230.67 129.652 229.506 128.742 228.598 128.263C227.689 127.784 226.27 127.25 225.445 127.078C224.619 126.905 223.217 126.773 222.329 126.784C221.441 126.795 219.632 127.034 218.308 127.316Z" fill="#A78BFA"/>
<path d="M215.738 191.255C215.028 192 213.132 194.112 211.523 195.949C209.915 197.786 207.565 200.25 206.302 201.425C205.039 202.599 203.241 204.106 202.307 204.774C201.372 205.441 199.588 206.55 198.342 207.238C197.096 207.926 194.865 209.018 193.386 209.663C191.906 210.309 189.684 211.101 188.447 211.423C186.749 211.865 185.328 212.007 182.642 212.006C180.063 212.005 178.432 211.848 176.715 211.436C175.413 211.124 173.182 210.304 171.759 209.613C170.172 208.843 168.307 207.626 166.935 206.465L164.698 204.572L164.891 205.812C164.997 206.494 165.524 207.986 166.063 209.128C166.748 210.583 167.588 211.751 168.862 213.026C170.136 214.299 171.307 215.14 172.759 215.826C173.901 216.366 175.664 217.027 176.677 217.295C178.028 217.653 179.647 217.783 182.766 217.783C185.232 217.783 187.726 217.626 188.713 217.41C189.647 217.204 191.368 216.717 192.536 216.327C193.704 215.936 195.552 215.171 196.643 214.626C197.733 214.081 199.763 212.857 201.153 211.906C202.544 210.956 204.762 209.156 206.082 207.907C207.402 206.658 209.14 204.808 209.945 203.795C210.749 202.783 211.923 201.19 212.553 200.255C213.184 199.32 214.281 197.399 214.991 195.985C215.701 194.571 216.495 192.761 216.756 191.963C217.017 191.165 217.185 190.375 217.129 190.207C217.073 190.039 216.447 190.511 215.738 191.255Z" fill="#A78BFA"/>
<path d="M208.205 212.615C206.777 214.408 204.644 216.776 203.465 217.877C202.286 218.978 200.615 220.347 199.753 220.92C198.89 221.492 197.2 222.451 195.997 223.051C194.795 223.65 193.046 224.396 192.111 224.708C191.177 225.019 189.333 225.493 188.015 225.759C186.317 226.103 184.907 226.198 183.184 226.087C181.846 226 179.939 225.718 178.947 225.461C177.954 225.204 176.496 224.667 175.706 224.268C174.916 223.869 173.696 223.161 172.995 222.693C172.294 222.225 170.861 220.936 169.809 219.828C167.904 217.82 167.898 217.816 167.897 218.704C167.897 219.194 168.149 220.41 168.457 221.407C168.765 222.403 169.411 223.814 169.893 224.541C170.375 225.269 171.467 226.502 172.32 227.282C173.173 228.061 174.789 229.152 175.911 229.707C177.097 230.293 179.077 230.947 180.642 231.27C182.121 231.575 184.224 231.825 185.314 231.825C186.405 231.825 188.444 231.587 189.846 231.296C191.248 231.005 193.211 230.434 194.208 230.027C195.206 229.62 196.971 228.696 198.132 227.972C199.292 227.249 201.455 225.498 202.937 224.08C204.42 222.663 206.11 220.801 206.693 219.942C207.276 219.083 208.284 217.324 208.932 216.033C209.581 214.742 210.308 212.921 210.547 211.987C210.786 211.053 210.941 210.079 210.892 209.822C210.834 209.519 209.885 210.505 208.205 212.615Z" fill="#A78BFA"/>
<path d="M204.156 228.281C203.355 229.288 201.598 231.143 200.251 232.403C198.509 234.032 197.144 235.018 195.523 235.817C194.27 236.435 192.352 237.127 191.262 237.355C190.171 237.583 188.132 237.77 186.73 237.77C185.329 237.77 183.322 237.587 182.271 237.365C181.22 237.142 179.564 236.576 178.59 236.108C177.615 235.639 176.022 234.607 175.048 233.814C173.436 232.501 173.279 232.431 173.285 233.023C173.288 233.38 173.544 234.231 173.853 234.913C174.162 235.594 174.885 236.792 175.459 237.574C176.033 238.356 177.252 239.48 178.169 240.072C179.277 240.788 180.554 241.309 181.982 241.626C183.559 241.977 184.889 242.065 186.988 241.957C189.031 241.851 190.491 241.593 192.111 241.048C193.357 240.629 195.033 239.911 195.836 239.453C196.639 238.994 197.991 238.079 198.841 237.419C199.692 236.758 201.042 235.454 201.841 234.521C202.641 233.587 203.863 231.676 204.558 230.275C205.252 228.873 205.898 227.439 205.994 227.089C206.09 226.738 206.043 226.451 205.89 226.451C205.737 226.451 204.957 227.275 204.156 228.281Z" fill="#A78BFA"/>
<path d="M198.468 241.912C197.308 243.085 195.531 244.593 194.519 245.263C193.506 245.932 192.041 246.721 191.262 247.015C190.178 247.424 189.114 247.548 186.73 247.54C184.03 247.532 183.386 247.434 181.893 246.801C180.946 246.399 179.448 245.609 178.565 245.044C177.002 244.044 176.96 244.034 176.96 244.666C176.96 245.023 177.32 245.882 177.76 246.574C178.2 247.266 179.054 248.266 179.659 248.796C180.263 249.325 181.427 250.065 182.246 250.44C183.114 250.837 184.535 251.188 185.657 251.282C186.734 251.372 188.293 251.295 189.2 251.107C190.091 250.922 191.601 250.38 192.556 249.903C193.511 249.425 195.098 248.281 196.083 247.36C197.068 246.439 198.276 245.057 198.769 244.29C199.261 243.523 199.914 242.238 200.219 241.435C200.524 240.632 200.729 239.931 200.675 239.877C200.621 239.823 199.628 240.739 198.468 241.912Z" fill="#A78BFA"/>
<path d="M321.88 150.977V16.4641H342.011C348.355 16.4641 353.723 17.5012 358.115 19.5753C362.508 21.6494 366.046 25.1876 368.73 30.1899C371.414 35.1922 373.336 42.0551 374.495 50.7786C375.715 59.5022 376.325 70.5133 376.325 83.8121C376.325 97.1719 375.715 108.214 374.495 116.937C373.336 125.6 371.414 132.432 368.73 137.434C366.046 142.376 362.508 145.883 358.115 147.957C353.723 149.971 348.355 150.977 342.011 150.977H321.88ZM341.645 131.212C346.525 131.212 349.972 129.29 351.985 125.447C353.998 121.604 355.218 116.114 355.645 108.976C356.072 101.839 356.285 93.3592 356.285 83.5376C356.285 73.594 356.072 65.1145 355.645 58.0991C355.218 51.0227 353.967 45.6238 351.893 41.9026C349.88 38.1204 346.464 36.2293 341.645 36.2293V131.212Z" fill="white"/>
<path d="M406.443 150.977V16.4641H426.208C438.042 16.4641 446.766 19.7583 452.378 26.3467C457.99 32.8741 460.796 42.5126 460.796 55.2624C460.796 62.8269 459.454 69.3847 456.77 74.9361C454.147 80.4264 450.944 84.4527 447.162 87.0148L460.613 150.977H440.848L429.685 94.2437H426.208V150.977H406.443ZM426.208 75.9426C429.868 75.9426 432.765 75.1496 434.9 73.5635C437.036 71.9164 438.561 69.5983 439.476 66.6091C440.391 63.6199 440.848 60.0817 440.848 55.9944C440.848 49.5891 439.781 44.6783 437.646 41.2621C435.572 37.7849 431.759 36.0463 426.208 36.0463V75.9426Z" fill="white"/>
<path d="M485.763 150.977V130.663H504.979V150.977H485.763Z" fill="white"/>
<path d="M594.199 150.977L573.703 16.4641H592.918L602.801 95.8908L603.533 108.885H604.631L605.363 95.8908L615.245 16.4641H634.461L613.964 150.977H594.199Z" fill="white"/>
<path d="M649.608 150.977L669.922 16.4641H694.079L714.393 150.977H695.177L691.517 123.525H672.484L668.824 150.977H649.608ZM675.229 102.662H688.772L683.099 57.4585L682.55 50.3211H681.452L680.903 57.4585L675.229 102.662Z" fill="white"/>
<path d="M741.327 150.977V16.4641H761.092C772.926 16.4641 781.65 19.7583 787.262 26.3467C792.874 32.8741 795.681 42.5126 795.681 55.2624C795.681 62.8269 794.338 69.3847 791.654 74.9361C789.031 80.4264 785.829 84.4527 782.046 87.0148L795.498 150.977H775.733L764.569 94.2437H761.092V150.977H741.327ZM761.092 75.9426C764.752 75.9426 767.65 75.1496 769.785 73.5635C771.92 71.9164 773.445 69.5983 774.36 66.6091C775.275 63.6199 775.733 60.0817 775.733 55.9944C775.733 49.5891 774.665 44.6783 772.53 41.2621C770.456 37.7849 766.643 36.0463 761.092 36.0463V75.9426Z" fill="white"/>
<path d="M847 152.441C841.571 152.441 837.057 151.557 833.458 149.788C829.858 147.957 827.022 145.334 824.948 141.918C822.874 138.502 821.379 134.384 820.464 129.565C819.61 124.746 819.183 119.316 819.183 113.277L838.582 111.447C838.582 114.375 838.673 117.212 838.856 119.957C839.1 122.641 839.497 125.081 840.046 127.277C840.656 129.412 841.51 131.12 842.608 132.402C843.767 133.683 845.231 134.323 847 134.323C849.928 134.323 852.002 132.981 853.222 130.297C854.443 127.552 855.053 124.258 855.053 120.414C855.053 116.571 854.046 112.575 852.033 108.427C850.02 104.279 847.61 100.344 844.804 96.6229C840.046 90.2785 835.867 84.3916 832.268 78.9623C828.73 73.533 825.954 68.1952 823.941 62.9489C821.989 57.7025 821.013 52.2122 821.013 46.4779C821.013 41.9636 821.592 37.8154 822.752 34.0331C823.911 30.1899 825.588 26.8652 827.784 24.059C830.041 21.1919 832.756 18.9652 835.928 17.3791C839.1 15.793 842.73 15 846.817 15C851.88 15 856.151 15.8541 859.628 17.5622C863.166 19.2703 866.003 21.7104 868.138 24.8826C870.334 28.0548 871.92 31.837 872.896 36.2293C873.933 40.5605 874.451 45.3798 874.451 50.6871L855.053 52.5172C855.053 50.2601 854.931 48.003 854.687 45.7458C854.504 43.4277 854.138 41.3231 853.589 39.432C853.039 37.5408 852.246 36.0158 851.209 34.8567C850.172 33.6976 848.83 33.1181 847.183 33.1181C844.621 33.1181 842.852 34.2161 841.876 36.4123C840.9 38.5474 840.412 41.5976 840.412 45.5628C840.412 50.6871 841.784 55.6284 844.53 60.3867C847.275 65.145 850.965 70.6963 855.602 77.0407C861.153 84.5442 865.667 91.4376 869.144 97.7209C872.682 104.004 874.451 110.959 874.451 118.584C874.451 123.403 873.933 127.887 872.896 132.035C871.859 136.123 870.212 139.691 867.955 142.742C865.759 145.792 862.922 148.171 859.445 149.879C856.029 151.587 851.88 152.441 847 152.441Z" fill="white"/>
<path d="M901.517 150.977V16.4641H921.282V72.0994H936.654V16.4641H956.419V150.977H936.654V92.4136H921.282V150.977H901.517Z" fill="white"/>
<path d="M987.509 150.977V16.4641H1005.99L1024.29 86.5573L1025.94 92.7796H1027.04V16.4641H1045.16V150.977H1028.5L1008.37 80.8839L1006.73 74.6616H1005.63V150.977H987.509Z" fill="white"/>
<path d="M1076.18 150.977V16.4641H1121.39V36.7783H1095.95V73.0145H1114.25V92.7796H1095.95V130.663H1121.39V150.977H1076.18Z" fill="white"/>
<path d="M1168.08 150.977V93.6947L1147.95 16.4641H1167.35L1177.05 59.4717L1177.69 65.328H1178.24L1178.88 59.4717L1188.58 16.4641H1207.98L1187.85 93.6947V150.977H1168.08Z" fill="white"/>
<path d="M1231.29 60.5697L1237.7 36.7783H1231.29V16.4641H1250.51V36.7783L1240.44 60.5697H1231.29Z" fill="white"/>
<path d="M1302.55 152.441C1297.12 152.441 1292.61 151.557 1289.01 149.788C1285.41 147.957 1282.57 145.334 1280.5 141.918C1278.42 138.502 1276.93 134.384 1276.01 129.565C1275.16 124.746 1274.73 119.316 1274.73 113.277L1294.13 111.447C1294.13 114.375 1294.22 117.212 1294.4 119.957C1294.65 122.641 1295.05 125.081 1295.59 127.277C1296.2 129.412 1297.06 131.12 1298.16 132.402C1299.32 133.683 1300.78 134.323 1302.55 134.323C1305.48 134.323 1307.55 132.981 1308.77 130.297C1309.99 127.552 1310.6 124.258 1310.6 120.414C1310.6 116.571 1309.59 112.575 1307.58 108.427C1305.57 104.279 1303.16 100.344 1300.35 96.6229C1295.59 90.2785 1291.42 84.3916 1287.82 78.9623C1284.28 73.533 1281.5 68.1952 1279.49 62.9489C1277.54 57.7025 1276.56 52.2122 1276.56 46.4779C1276.56 41.9636 1277.14 37.8154 1278.3 34.0331C1279.46 30.1899 1281.14 26.8652 1283.33 24.059C1285.59 21.1919 1288.3 18.9652 1291.48 17.3791C1294.65 15.793 1298.28 15 1302.37 15C1307.43 15 1311.7 15.8541 1315.18 17.5622C1318.71 19.2703 1321.55 21.7104 1323.69 24.8826C1325.88 28.0548 1327.47 31.837 1328.44 36.2293C1329.48 40.5605 1330 45.3798 1330 50.6871L1310.6 52.5172C1310.6 50.2601 1310.48 48.003 1310.24 45.7458C1310.05 43.4277 1309.69 41.3231 1309.14 39.432C1308.59 37.5408 1307.79 36.0158 1306.76 34.8567C1305.72 33.6976 1304.38 33.1181 1302.73 33.1181C1300.17 33.1181 1298.4 34.2161 1297.42 36.4123C1296.45 38.5474 1295.96 41.5976 1295.96 45.5628C1295.96 50.6871 1297.33 55.6284 1300.08 60.3867C1302.82 65.145 1306.51 70.6963 1311.15 77.0407C1316.7 84.5442 1321.22 91.4376 1324.69 97.7209C1328.23 104.004 1330 110.959 1330 118.584C1330 123.403 1329.48 127.887 1328.44 132.035C1327.41 136.123 1325.76 139.691 1323.5 142.742C1321.31 145.792 1318.47 148.171 1314.99 149.879C1311.58 151.587 1307.43 152.441 1302.55 152.441Z" fill="white"/>
<path d="M340.225 273.507L318 273.594V212.103H340.225C344.792 212.103 348.95 212.893 352.698 214.475C356.446 216.056 359.667 218.252 362.361 221.063C365.055 223.815 367.134 227.066 368.598 230.814C370.062 234.503 370.794 238.486 370.794 242.761C370.794 247.036 370.062 251.048 368.598 254.796C367.134 258.485 365.055 261.735 362.361 264.546C359.667 267.299 356.446 269.495 352.698 271.135C348.95 272.716 344.792 273.507 340.225 273.507ZM360.517 242.761C360.517 239.891 359.99 237.197 358.935 234.679C357.94 232.102 356.505 229.877 354.631 228.003C352.816 226.07 350.649 224.548 348.131 223.435C345.671 222.322 342.948 221.766 339.961 221.766H328.102V264.019H339.961C342.948 264.019 345.7 263.463 348.218 262.35C350.737 261.238 352.903 259.715 354.719 257.782C356.534 255.85 357.94 253.595 358.935 251.018C359.99 248.441 360.517 245.689 360.517 242.761Z" fill="white"/>
<path d="M386.642 273.594V212.103H427.929V221.678H396.744V238.017H425.293V247.592H396.744V264.019H427.929V273.594H386.642Z" fill="white"/>
<path d="M443.703 273.594V212.103H453.805L484.99 256.289V212.103H495.092V273.594H484.99L453.805 229.32V273.594H443.703Z" fill="white"/>
<path d="M532.081 273.594V221.678H510.911V212.103H563.353V221.678H542.183V273.594H532.081Z" fill="white"/>
<path d="M599.741 212.103H609.052L633.561 273.594H622.668L617.573 260.242H591.22L586.125 273.594H575.232L599.741 212.103ZM613.884 250.667L604.397 226.07L594.909 250.667H613.884Z" fill="white"/>
<path d="M648.085 273.594V212.103H658.187V264.019H689.371V273.594H648.085Z" fill="white"/>
<path d="M759.085 212.103H768.397L792.905 273.594H782.013L776.918 260.242H750.564L745.47 273.594H734.577L759.085 212.103ZM773.228 250.667L763.741 226.07L754.254 250.667H773.228Z" fill="white"/>
<path d="M807.429 273.594V212.103H848.716V221.678H817.531V238.017H846.081V247.592H817.531V264.019H848.716V273.594H807.429Z" fill="white"/>
<path d="M863.699 229.057C863.699 226.363 864.256 223.903 865.369 221.678C866.54 219.394 868.15 217.461 870.2 215.88C872.25 214.24 874.68 212.981 877.491 212.103C880.302 211.166 883.406 210.697 886.802 210.697C891.78 210.697 896.319 211.664 900.418 213.596C904.576 215.47 907.973 218.076 910.608 221.414L902.79 228.003C900.975 225.602 898.661 223.757 895.85 222.469C893.098 221.18 890.023 220.536 886.627 220.536C882.879 220.536 879.892 221.268 877.667 222.732C875.441 224.196 874.329 225.982 874.329 228.091C874.329 229.32 874.709 230.375 875.471 231.253C876.232 232.073 877.257 232.834 878.545 233.537C879.892 234.181 881.415 234.767 883.113 235.294C884.811 235.821 886.627 236.348 888.559 236.875C891.136 237.578 893.771 238.368 896.465 239.247C899.159 240.125 901.59 241.267 903.756 242.673C905.982 244.078 907.768 245.835 909.115 247.944C910.52 250.052 911.223 252.687 911.223 255.85C911.223 258.719 910.608 261.355 909.378 263.756C908.149 266.098 906.45 268.119 904.283 269.817C902.175 271.457 899.628 272.716 896.641 273.594C893.713 274.531 890.492 275 886.978 275C881.473 275 876.554 273.946 872.22 271.838C867.887 269.671 864.344 266.655 861.591 262.789L869.409 256.201C871.342 259.012 873.802 261.208 876.788 262.789C879.834 264.371 883.318 265.161 887.242 265.161C891.283 265.161 894.504 264.4 896.905 262.877C899.364 261.296 900.594 259.305 900.594 256.904C900.594 255.557 900.184 254.415 899.364 253.478C898.544 252.482 897.432 251.633 896.026 250.93C894.679 250.169 893.098 249.525 891.283 248.998C889.526 248.412 887.652 247.827 885.661 247.241C883.142 246.538 880.566 245.748 877.93 244.869C875.353 243.991 873.011 242.878 870.903 241.531C868.794 240.184 867.067 238.515 865.72 236.524C864.373 234.533 863.699 232.044 863.699 229.057Z" fill="white"/>
<path d="M945.319 273.594V221.678H924.149V212.103H976.592V221.678H955.421V273.594H945.319Z" fill="white"/>
<path d="M992.423 273.594V212.103H1002.53V238.017H1033.71V212.103H1043.81V273.594H1033.71V247.592H1002.53V273.594H992.423Z" fill="white"/>
<path d="M1062.27 273.594V212.103H1103.55V221.678H1072.37V238.017H1100.92V247.592H1072.37V264.019H1103.55V273.594H1062.27Z" fill="white"/>
<path d="M1137.86 273.594V221.678H1116.69V212.103H1169.13V221.678H1147.96V273.594H1137.86Z" fill="white"/>
<path d="M1184.97 273.594V212.103H1195.07V273.594H1184.97Z" fill="white"/>
<path d="M1212.23 242.761C1212.23 238.193 1213.05 233.947 1214.69 230.023C1216.33 226.099 1218.58 222.703 1221.45 219.833C1224.38 216.964 1227.81 214.738 1231.73 213.157C1235.65 211.517 1239.9 210.697 1244.47 210.697C1249.21 210.697 1253.6 211.576 1257.64 213.333C1261.69 215.031 1265.17 217.403 1268.1 220.448L1260.1 227.212C1258.11 225.221 1255.8 223.669 1253.16 222.556C1250.53 221.444 1247.63 220.887 1244.47 220.887C1241.36 220.887 1238.49 221.444 1235.86 222.556C1233.22 223.669 1230.94 225.221 1229.01 227.212C1227.08 229.203 1225.55 231.517 1224.44 234.152C1223.39 236.787 1222.86 239.657 1222.86 242.761C1222.86 245.806 1223.39 248.676 1224.44 251.37C1225.55 254.005 1227.08 256.318 1229.01 258.309C1230.94 260.301 1233.22 261.852 1235.86 262.965C1238.49 264.078 1241.36 264.634 1244.47 264.634C1247.63 264.634 1250.53 264.078 1253.16 262.965C1255.8 261.852 1258.11 260.301 1260.1 258.309L1268.1 265.073C1265.17 268.119 1261.69 270.52 1257.64 272.277C1253.6 273.975 1249.21 274.824 1244.47 274.824C1239.9 274.824 1235.65 274.034 1231.73 272.452C1227.81 270.813 1224.38 268.558 1221.45 265.688C1218.58 262.819 1216.33 259.422 1214.69 255.498C1213.05 251.575 1212.23 247.329 1212.23 242.761Z" fill="white"/>
<path d="M1282.26 229.057C1282.26 226.363 1282.81 223.903 1283.93 221.678C1285.1 219.394 1286.71 217.461 1288.76 215.88C1290.81 214.24 1293.24 212.981 1296.05 212.103C1298.86 211.166 1301.96 210.697 1305.36 210.697C1310.34 210.697 1314.88 211.664 1318.98 213.596C1323.13 215.47 1326.53 218.076 1329.17 221.414L1321.35 228.003C1319.53 225.602 1317.22 223.757 1314.41 222.469C1311.65 221.18 1308.58 220.536 1305.18 220.536C1301.44 220.536 1298.45 221.268 1296.22 222.732C1294 224.196 1292.89 225.982 1292.89 228.091C1292.89 229.32 1293.27 230.375 1294.03 231.253C1294.79 232.073 1295.81 232.834 1297.1 233.537C1298.45 234.181 1299.97 234.767 1301.67 235.294C1303.37 235.821 1305.18 236.348 1307.12 236.875C1309.69 237.578 1312.33 238.368 1315.02 239.247C1317.72 240.125 1320.15 241.267 1322.31 242.673C1324.54 244.078 1326.32 245.835 1327.67 247.944C1329.08 250.052 1329.78 252.687 1329.78 255.85C1329.78 258.719 1329.17 261.355 1327.94 263.756C1326.71 266.098 1325.01 268.119 1322.84 269.817C1320.73 271.457 1318.18 272.716 1315.2 273.594C1312.27 274.531 1309.05 275 1305.53 275C1300.03 275 1295.11 273.946 1290.78 271.838C1286.44 269.671 1282.9 266.655 1280.15 262.789L1287.97 256.201C1289.9 259.012 1292.36 261.208 1295.34 262.789C1298.39 264.371 1301.87 265.161 1305.8 265.161C1309.84 265.161 1313.06 264.4 1315.46 262.877C1317.92 261.296 1319.15 259.305 1319.15 256.904C1319.15 255.557 1318.74 254.415 1317.92 253.478C1317.1 252.482 1315.99 251.633 1314.58 250.93C1313.24 250.169 1311.65 249.525 1309.84 248.998C1308.08 248.412 1306.21 247.827 1304.22 247.241C1301.7 246.538 1299.12 245.748 1296.49 244.869C1293.91 243.991 1291.57 242.878 1289.46 241.531C1287.35 240.184 1285.62 238.515 1284.28 236.524C1282.93 234.533 1282.26 232.044 1282.26 229.057Z" fill="white"/>
</svg>
